<?xml version="1.0" standalone="no"?>
<!DOCTYPE svg PUBLIC "-//W3C//DTD SVG 20010904//EN"
 "http://www.w3.org/TR/2001/REC-SVG-20010904/DTD/svg10.dtd">
<svg version="1.0" xmlns="http://www.w3.org/2000/svg"
 width="2432.000000pt" height="1520.000000pt" viewBox="0 0 2432.000000 1520.000000"
 preserveAspectRatio="xMidYMid meet">

<g transform="translate(0.000000,1520.000000) scale(0.100000,-0.100000)"
fill="#000000" stroke="none">
<path d="M11620 10560 c-87 -12 -139 -29 -225 -73 -154 -80 -290 -251 -326
-412 -7 -30 -15 -54 -18 -53 -3 2 -44 22 -91 46 -192 96 -388 95 -588 -3 -315
-156 -450 -544 -298 -860 82 -173 220 -294 396 -349 155 -48 291 -42 454 20
76 29 100 34 175 34 l86 0 -3 -262 c-3 -273 3 -329 37 -347 10 -6 305 -11 739
-12 683 -2 723 -1 742 16 19 17 20 31 20 206 l0 188 93 -53 c50 -29 214 -123
363 -209 150 -86 281 -157 292 -157 11 0 30 12 41 26 21 26 21 36 21 545 0
550 -1 564 -47 576 -33 8 -31 8 -405 -208 -180 -104 -334 -192 -343 -195 -13
-5 -15 15 -15 165 0 158 -2 173 -20 191 -19 19 -33 20 -298 20 l-277 0 60 63
c197 206 229 526 81 791 -116 207 -399 341 -646 306z"/>
<path d="M10958 8259 c-13 -7 -18 -23 -18 -54 0 -39 -3 -44 -27 -49 -52 -11
-318 -55 -373 -62 -91 -11 -131 -39 -132 -93 -1 -38 23 -67 61 -74 23 -5 362
51 477 78 18 4 23 -1 28 -27 8 -41 23 -58 51 -58 34 0 58 33 52 72 -5 25 -1
40 17 61 21 26 32 29 247 62 270 42 269 42 269 60 0 19 16 20 -262 -11 l-236
-27 -36 23 c-27 16 -36 28 -36 49 0 47 -43 73 -82 50z"/>
<path d="M11633 8178 c8 -65 49 -149 89 -183 68 -57 106 -70 208 -70 83 1 102
4 146 27 28 15 66 44 84 64 38 44 78 127 87 179 l6 35 -313 0 -313 0 6 -52z"/>
<path d="M12189 7974 c-24 -25 -72 -59 -107 -76 -55 -27 -74 -31 -140 -31 -86
1 -158 24 -216 68 -27 20 -37 24 -41 14 -9 -27 -178 -576 -227 -739 -27 -91
-71 -235 -98 -320 -27 -85 -105 -342 -175 -570 -70 -228 -162 -530 -205 -670
-43 -140 -122 -397 -175 -570 -53 -173 -138 -452 -190 -620 -149 -485 -175
-572 -175 -582 0 -5 27 -8 61 -6 l60 3 243 730 c133 402 415 1251 626 1888
l384 1157 155 -2 154 -3 87 -290 c94 -313 204 -678 380 -1260 61 -203 160
-532 220 -730 60 -198 159 -526 220 -730 62 -203 139 -461 172 -572 l61 -203
53 0 c59 0 59 0 44 50 -13 42 -265 961 -325 1185 -24 88 -107 392 -185 675
-78 283 -170 621 -205 750 -35 129 -121 442 -190 695 -69 253 -147 537 -172
630 -25 94 -46 171 -47 172 -1 2 -22 -18 -47 -43z"/>
</g>
</svg>
